# xmcd
#
# Track frame offsets:
#	150
#	12690
#	26690
#	40817
#	56347
#	77835
#	95747
#	111315
#	125845
#	142082
#	153855
#	166262
#	183437
#
# Disc length: 2641 seconds
#
# Revision: 0
# Processed by: cddbd v1.4PL0 Copyright (c) Steve Scherf et al.
# Submitted via: EasyCDDAExtractor 4.6.0.1
#
DISCID=b20a4f0d
DTITLE=Shanley Del - What's A Heartache For?
DYEAR=1994
DGENRE=Country
TTITLE0=I Don't Wanna Talk About Love
TTITLE1=Human Weakness
TTITLE2=That I Hand That I Hold
TTITLE3=What's A Heartache For ?
TTITLE4=Heaven On Earth
TTITLE5=Reason Enough
TTITLE6=Wild About You
TTITLE7=The Laughing Years
TTITLE8=How Long (until the heartache goes away)
TTITLE9=I Know Losin' By Heart
TTITLE10=Little Ray Of Hope
TTITLE11=Full Time Job
TTITLE12=Rear View Mirrors
EXTD=
EXTT0=
EXTT1=
EXTT2=
EXTT3=
EXTT4=
EXTT5=
EXTT6=
EXTT7=
EXTT8=
EXTT9=
EXTT10=
EXTT11=
EXTT12=
PLAYORDER=
